<?xml version="1.0" encoding="UTF-8"?>
<!DOCTYPE svg PUBLIC "-//W3C//DTD SVG 1.1//EN" "http://www.w3.org/Graphics/SVG/1.1/DTD/svg11.dtd">
<!-- Creator: CorelDRAW X7 -->
<svg xmlns="http://www.w3.org/2000/svg" xml:space="preserve" width="210mm" height="297mm" version="1.1" style="shape-rendering:geometricPrecision; text-rendering:geometricPrecision; image-rendering:optimizeQuality; fill-rule:evenodd; clip-rule:evenodd"
viewBox="0 0 21000 29700"
 xmlns:xlink="http://www.w3.org/1999/xlink">
 <defs>
  <style type="text/css">
   <![CDATA[
    .fil1 {fill:#373435}
    .fil2 {fill:#373435;fill-rule:nonzero}
    .fil0 {fill:black;fill-rule:nonzero}
   ]]>
  </style>
 </defs>
 <g id="Camada_x0020_1">
  <metadata id="CorelCorpID_0Corel-Layer"/>
  <path id="__xf16d_" class="fil0" d="M8532 14801c0,-66 -54,-121 -121,-121 -66,0 -121,55 -121,121 0,67 55,121 121,121 67,0 121,-54 121,-121zm65 0c0,103 -83,186 -186,186 -103,0 -186,-83 -186,-186 0,-103 83,-186 186,-186 103,0 186,83 186,186zm51 -193c0,24 -19,43 -43,43 -24,0 -44,-19 -44,-43 0,-25 20,-44 44,-44 24,0 43,19 43,44zm-237 -104c-53,0 -166,-5 -214,14 -16,7 -29,15 -41,28 -13,12 -21,25 -28,41 -19,48 -14,161 -14,214 0,53 -5,167 14,214 7,17 15,29 28,42 12,13 25,21 41,27 48,19 161,15 214,15 53,0 166,4 214,-15 17,-6 29,-14 42,-27 13,-13 21,-25 27,-42 19,-47 15,-161 15,-214 0,-53 4,-166 -15,-214 -6,-16 -14,-29 -27,-41 -13,-13 -25,-21 -42,-28 -48,-19 -161,-14 -214,-14zm363 297c0,50 0,100 -2,150 -3,58 -16,110 -59,152 -42,43 -94,56 -152,59 -50,3 -100,2 -150,2 -50,0 -100,1 -150,-2 -58,-3 -109,-16 -152,-59 -42,-42 -55,-94 -58,-152 -3,-50 -3,-100 -3,-150 0,-50 0,-99 3,-150 3,-58 16,-109 58,-152 43,-42 94,-55 152,-58 50,-3 100,-3 150,-3 50,0 100,0 150,3 58,3 110,16 152,58 43,43 56,94 59,152 2,51 2,100 2,150z"/>
  <g>
   <path id="Instagram-Logo" class="fil1" d="M10198 14735c-15,0 -49,10 -56,107 -6,97 20,122 41,125 22,3 60,-32 62,-135 3,-104 -47,-97 -47,-97l0 0zm188 228c-11,20 -33,49 -67,46 -51,-6 -62,-58 -62,-67 0,0 -26,67 -97,67 -48,-1 -70,-46 -80,-86 -11,34 -42,83 -82,84 -76,0 -79,-119 -79,-119 -22,53 -66,120 -146,120 -80,-1 -90,-30 -90,-34 0,-4 -1,-9 8,-22 9,-14 17,-19 23,-19 13,0 29,27 55,27 26,-1 31,-22 33,-42 2,-21 -13,-43 -33,-62 -20,-18 -36,-32 -36,-32 -29,49 -51,82 -67,111 -51,84 -132,112 -134,-15 -1,-62 4,-168 4,-173 0,-6 -5,-3 -5,-3 -77,82 -100,252 -100,255 0,3 -7,7 -14,7 -7,0 2,-1 -25,-1 -28,-1 -26,-54 -26,-54l2 -252c0,-9 8,-12 34,-5 27,7 26,15 26,15l-1 147c67,-201 118,-169 149,-154 31,15 27,37 27,37 0,0 -3,111 -5,149 -1,39 4,55 13,56 22,5 99,-144 99,-144 -43,-46 -6,-113 51,-116 0,0 34,-2 33,27 1,32 -34,71 -34,71 68,49 100,75 105,112 3,19 -1,30 -1,30 48,-43 52,-90 52,-90l1 -159 -72 -1c0,0 -6,-1 -7,-14 0,-25 14,-36 14,-36l69 1 2 -83c3,-17 13,-19 44,-12 30,8 30,15 30,15l-4 84c0,0 76,4 86,5 10,1 14,3 11,20 -2,18 -12,22 -12,22l-86 2 -6 184c0,29 2,96 28,96 38,2 60,-82 60,-82l0 -1c-2,-69 20,-192 107,-192 0,0 42,-2 64,40l1 -15c0,0 -2,-18 27,-14 29,5 39,16 38,25 0,0 -5,118 -2,187 4,40 11,64 31,62 15,-2 27,-20 34,-38l12 33zm-1211 -391c47,-47 77,-48 77,-48 12,-2 53,11 55,27l0 342c3,96 -21,133 -50,159 -4,3 -36,25 -38,9 -1,-6 4,-20 4,-20 14,-36 13,-100 13,-100l2 -369c0,0 1,-6 -5,-4 -56,48 -63,116 -65,149 -1,50 21,76 21,76 7,6 7,21 -4,20 -21,-2 -55,-26 -67,-55 -10,-21 -10,-44 -10,-44 1,-29 19,-95 67,-142z"/>
  </g>
  <path class="fil2" d="M10373 14486l271 0c47,0 81,10 102,31 20,20 31,50 31,91l0 363c0,40 -10,71 -31,90 -20,20 -54,29 -102,29l-271 0 0 -604zm136 81l0 444 67 0c14,0 28,-2 44,-5 16,-3 24,-15 24,-36l0 -362c0,-20 -8,-31 -24,-35 -18,-4 -33,-6 -44,-6l-67 0z"/>
  <path id="1" class="fil2" d="M11106 15092l-135 0c-48,0 -82,-10 -102,-30 -21,-19 -31,-50 -31,-91l0 -202c0,-80 45,-120 135,-120l133 0c90,0 135,41 135,122l0 118 -267 0 0 82c0,20 7,33 23,36 16,4 31,6 44,6l68 0c20,0 32,-3 35,-8 4,-5 5,-17 5,-34l92 1c0,80 -45,120 -135,120zm-132 -282l134 0 0 -41c0,-10 -4,-19 -14,-27 -9,-8 -19,-12 -28,-12l-52 -1c-10,0 -19,4 -28,12 -8,9 -12,18 -12,28l0 41z"/>
  <path id="2" class="fil2" d="M11302 15092l0 -443 136 0 0 364 67 0c14,0 28,-9 44,-26 16,-16 24,-35 24,-56l0 -282 133 0 0 241c0,39 -17,83 -52,131 -34,47 -75,71 -122,71l-230 0z"/>
 </g>
</svg>
